<?xml version="1.0" encoding="UTF-8" standalone="no"?>
<svg
   viewBox="0 0 1000 1000"
   version="1.1"
   xml:space="preserve"
   style="clip-rule:evenodd;fill-rule:evenodd;stroke-linejoin:round;stroke-miterlimit:2"
   id="svg7"
   xmlns="http://www.w3.org/2000/svg"
   xmlns:svg="http://www.w3.org/2000/svg"><defs
     id="defs7" /><g
     id="g7"><path
       d="m 890.745,946.777 c 0,29.395 -23.828,53.223 -53.223,53.223 H 301.023 c -29.392,0 -53.221,-23.828 -53.221,-53.223 v -384.28 c 0,-29.396 -23.828,-53.224 -53.22,-53.224 h -32.108 c -29.393,0 -53.219,-23.828 -53.219,-53.211 V 53.22 c 0,-14.115 5.606,-27.651 15.587,-37.633 C 134.823,5.607 148.359,0 162.474,0 h 675.048 c 14.116,0 27.663,5.607 37.635,15.587 9.984,9.982 15.588,23.518 15.588,37.633 z"
       style="fill:#ba6900;fill-opacity:1"
       id="path1" /></g><path
     d="m 565.12003,281.12013 12.32001,11.73334 q -33.44002,59.84003 -76.85338,59.84003 -17.60001,0 -27.57335,-9.38667 -9.38667,-9.97334 -9.38667,-25.81334 0,-16.42668 19.36001,-55.73337 19.36001,-39.30669 20.53335,-59.84003 0.58666,-9.38667 -5.86667,-15.25334 -5.86667,-5.86667 -16.42668,-5.86667 -10.56001,0 -21.70668,5.28 -10.56,4.69334 -21.12001,15.84001 -9.97334,11.14667 -18.77334,21.70668 -8.21334,10.56 -18.77335,29.92001 -9.97334,19.36001 -17.01334,32.26669 -12.32001,24.05334 -35.20002,72.16004 L 313.43989,345.6535 q 0,-1.76 19.36001,-66.29337 19.36001,-64.53337 19.36001,-76.85338 0,-12.32 -5.86667,-17.6 -5.86667,-5.86667 -14.66667,-5.86667 -26.40002,0 -73.33338,65.7067 -46.34669,65.7067 -59.25336,112.05339 L 165.59981,345.6535 q 2.93333,-31.09335 27.57335,-111.46673 24.64001,-80.96004 41.65335,-110.29339 l 26.40002,9.38667 q -18.18668,40.48002 -25.22668,68.64004 -7.04001,27.57335 -12.32001,59.25336 50.45336,-72.16004 84.48005,-100.90672 34.02668,-29.33335 61.60003,-29.33335 29.92002,0 29.92002,29.92002 0,11.73334 -10.56001,46.34669 -9.97334,34.61335 -15.84001,54.56003 80.96005,-130.24007 144.90675,-130.24007 15.84001,0 25.22668,9.97334 9.38667,9.38667 9.38667,28.74668 0,18.77334 -22.29334,62.77337 Q 508.8,277.01346 508.8,288.7468 q 0,11.14668 4.69333,16.42668 4.69334,5.28 11.73334,5.28 15.25335,0 39.89336,-29.33335 z m 267.52022,39.30669 1.76,15.25334 q -2.34667,1.76 -54.56003,21.12001 -7.04,38.72003 -18.18668,76.26671 -10.56,38.13336 -21.70668,57.49337 -10.56,19.94668 -25.22668,39.30669 -29.33335,38.72002 -79.20004,38.72002 -24.64001,0 -39.30669,-15.25334 -14.66667,-15.25335 -14.66667,-41.65336 0,-101.49339 170.13342,-163.09342 l 31.68002,-111.46673 q -50.45336,75.68004 -90.93338,93.28005 -19.94668,9.38667 -42.24003,9.38667 -21.70667,0 -35.20002,-14.08001 -12.90667,-14.08 -12.90667,-41.06669 0,-26.98668 18.18668,-75.09337 18.77334,-48.69336 41.65335,-81.54671 l 28.74669,12.32 q -1.76,1.76 -16.42668,31.09335 -25.81335,53.3867 -25.81335,79.20005 0,25.81335 9.97334,34.61335 9.97334,8.80001 29.33335,8.80001 19.36001,0 43.41336,-22.88002 24.64001,-23.46668 75.68004,-92.10671 l 21.12001,12.32 q -4.69333,19.36001 -21.12001,70.40004 -15.84001,50.45336 -21.70668,77.44004 z m -84.48005,45.76003 q -36.96002,17.01334 -65.12003,38.72002 -52.80003,39.89335 -52.80003,77.44004 0,14.08001 8.21333,22.88001 8.21334,8.80001 20.53335,8.80001 58.6667,0 89.17338,-147.84008 z"
     id="text12"
     style="font-size:586.667px;line-height:0.9;font-family:'Marck Script';-inkscape-font-specification:'Marck Script';text-align:center;text-anchor:middle;fill:#ffffff"
     aria-label="my" /><g
     id="g11"
     transform="translate(-3.1460103,17.026622)"><g
       style="clip-rule:evenodd;fill:none;fill-rule:evenodd;stroke-linejoin:round;stroke-miterlimit:2"
       id="g10"
       transform="matrix(13.333368,0,0,13.333368,544.0081,660.93585)"><path
         fill-rule="evenodd"
         clip-rule="evenodd"
         d="m 3,14 a 1,1 0 0 1 1,-1 h 12 a 3,3 0 0 0 3,-3 V 6 a 1,1 0 1 1 2,0 v 4 a 5,5 0 0 1 -5,5 H 4 A 1,1 0 0 1 3,14 Z"
         fill="#0d0d0d"
         id="path1-8"
         style="fill:#ffffff;fill-opacity:1" /><path
         fill-rule="evenodd"
         clip-rule="evenodd"
         d="m 3.293,14.707 a 1,1 0 0 1 0,-1.414 l 4,-4 a 1,1 0 0 1 1.414,1.414 L 5.414,14 8.707,17.293 a 1,1 0 1 1 -1.414,1.414 z"
         fill="#0d0d0d"
         id="path2-5"
         style="fill:#ffffff;fill-opacity:1" /></g><path
       d="m 327.86981,842.04 q -7.04,-7.04001 -7.04,-17.01335 0,-9.97334 7.04,-17.01334 7.04,-7.04 17.01334,-7.04 9.97334,0 17.01335,7.04 7.04,7.04 7.04,17.01334 0,9.97334 -7.04,17.01335 -7.04001,7.04 -17.01335,7.04 -9.97334,0 -17.01334,-7.04 z m 235.25377,-79.78672 14.08001,11.73334 q -14.08001,32.26669 -45.17336,51.6267 -31.09335,19.36001 -60.4267,19.36001 -28.74668,0 -48.10669,-18.18668 -18.77335,-18.18667 -18.77335,-49.86669 0,-31.68002 27.57335,-68.64004 27.57335,-36.96002 70.98671,-61.01337 44.00002,-24.05334 86.24005,-24.05334 5.86667,0 17.60001,1.17333 l -1.76,22.88001 q -64.53337,2.93334 -107.36006,39.30669 -42.24003,36.37336 -42.24003,77.44005 0,17.01334 10.56001,27.57334 10.56,10.56001 27.57335,10.56001 26.98668,0 69.2267,-39.89336 z"
       id="text13"
       style="font-size:586.667px;line-height:0.9;font-family:'Marck Script';-inkscape-font-specification:'Marck Script';text-align:center;text-anchor:middle;fill:#ffffff"
       aria-label=".c" /></g></svg>
